<svg xmlns="http://www.w3.org/2000/svg" viewBox="0 0 24 24" fill="none">
  <path d="M7.164 13.975c0 .263.029.477.08.634.058.158.131.33.226.52a.36.36 0 0 1 .058.19c0 .082-.051.165-.16.248l-.532.355a.395.395 0 0 1-.219.073c-.087 0-.174-.044-.255-.124a2.612 2.612 0 0 1-.306-.399 6.506 6.506 0 0 1-.262-.503c-.663.782-1.496 1.173-2.5 1.173-.715 0-1.283-.204-1.704-.612-.42-.408-.634-.952-.634-1.632 0-.722.254-1.308.77-1.748.517-.44 1.203-.66 2.074-.66.29 0 .585.023.894.065.307.044.624.11.954.19v-.62c0-.648-.137-1.1-.399-1.364-.27-.263-.722-.392-1.364-.392-.292 0-.593.036-.903.109a6.616 6.616 0 0 0-.903.284 2.397 2.397 0 0 1-.291.109.516.516 0 0 1-.131.022c-.117 0-.175-.087-.175-.263v-.415c0-.136.014-.241.058-.306a.622.622 0 0 1 .219-.175c.292-.146.643-.27 1.054-.37A5.033 5.033 0 0 1 5.82 8c.934 0 1.617.212 2.056.634.431.424.65 1.067.65 1.93v2.543h-.002l.002.001v-.133zm-3.45 1.283c.277 0 .563-.05.863-.153.3-.102.566-.29.788-.546a1.4 1.4 0 0 0 .306-.576c.058-.219.095-.482.095-.788v-.38a6.87 6.87 0 0 0-.76-.146 6.177 6.177 0 0 0-.775-.051c-.567 0-.983.11-1.261.34-.277.226-.41.546-.41.964 0 .392.102.686.314.889.204.21.504.312.903.312l-.063.135zm6.826 1.062c-.146 0-.248-.022-.314-.073-.066-.044-.124-.146-.175-.292l-1.95-6.415a1.274 1.274 0 0 1-.073-.306c0-.124.058-.19.175-.19h.832c.153 0 .255.022.314.073.066.043.117.146.167.292l1.393 5.497 1.291-5.497c.044-.153.095-.255.168-.292a.588.588 0 0 1 .32-.073h.68c.153 0 .255.022.32.073.066.044.124.146.168.292l1.305 5.57L17.1 9.332c.051-.153.102-.255.167-.292a.543.543 0 0 1 .32-.073h.79c.117 0 .183.06.183.19 0 .037-.008.073-.015.117a1.1 1.1 0 0 1-.058.197l-2.001 6.415c-.05.153-.109.248-.174.292a.55.55 0 0 1-.32.073h-.73c-.153 0-.254-.022-.32-.073-.065-.051-.123-.146-.167-.3l-1.283-5.362-1.276 5.355c-.043.153-.095.248-.167.3-.065.051-.174.073-.32.073h-.73l.002.003zM21.89 16.38a.32.32 0 0 1-.248-.131c-.073-.087-.073-.2-.015-.34a5.113 5.113 0 0 0 1.057-3.053c0-.43-.058-.86-.182-1.282-.022-.066-.03-.131-.03-.175 0-.11.073-.168.212-.168h.847c.102 0 .175.022.219.073a.98.98 0 0 1 .109.263c.138.525.204 1.072.204 1.645 0 .963-.2 1.838-.599 2.613-.087.168-.182.292-.277.355a.624.624 0 0 1-.33.102h.033v.098z" fill="#FF9900"/>
  <path d="M22.365 19.336c-2.759 2.034-6.76 3.116-10.2 3.116-4.826 0-9.174-1.785-12.46-4.753-.259-.233-.029-.552.283-.37 3.549 2.063 7.938 3.305 12.472 3.305 3.057 0 6.42-.634 9.516-1.95.466-.197.86.306.389.652z" fill="#FF9900"/>
  <path d="M23.364 18.163c-.35-.452-2.336-.219-3.228-.109-.27.036-.312-.204-.066-.38 1.584-1.109 4.178-.789 4.48-.416.306.38-.08 3-.568 4.25-.147.255-.306.373-.518.248-.197-.102-.32-.328-.233-.489.233-.576.752-1.863.403-2.314l-.27.21z" fill="#FF9900"/>
</svg>
