<svg xmlns="http://www.w3.org/2000/svg" viewBox="0 0 24 24" fill="none">
  <path d="M12 2C8.13 2 5 5.13 5 9c0 2.38 1.19 4.47 3 5.74V17c0 .55.45 1 1 1h6c.55 0 1-.45 1-1v-2.26c1.81-1.27 3-3.36 3-5.74 0-3.87-3.13-7-7-7z" fill="#1A1A2E"/>
  <circle cx="9.5" cy="9" r="1.5" fill="white"/>
  <circle cx="14.5" cy="9" r="1.5" fill="white"/>
  <path d="M9 19h6v1c0 1.1-.9 2-2 2h-2c-1.1 0-2-.9-2-2v-1z" fill="#1A1A2E"/>
  <path d="M9.5 12.5c0 0 1 1.5 2.5 1.5s2.5-1.5 2.5-1.5" stroke="white" stroke-width="1" stroke-linecap="round" fill="none"/>
</svg>
